<svg width="241" height="58" viewBox="0 0 241 58" fill="none" xmlns="http://www.w3.org/2000/svg">
<path d="M239.306 1C239.306 3.26666 238.302 8.33242 236.526 13.5237C233.081 23.5914 231.456 29.1127 230.688 32.9348C230.354 34.5956 229.167 35.9811 228.284 37.6241C225.041 43.6636 210.219 46.3637 193.98 47.0216C181.424 47.5303 173.907 37.5252 171.237 34.4789C170.672 33.8342 170.849 32.9615 171.602 32.0715C176.689 26.0599 187.553 25.5986 195.657 25.9675C203.194 26.3106 208.615 29.8961 210.14 32.0411C212.129 34.8399 208.63 38.514 206.994 41.2903C200.758 51.8769 190.147 53.9775 180.943 56.0046C174.606 57.4002 164.46 57.0276 143.851 54.8979C123.242 52.7681 92.3682 48.25 68.6823 45.9225C44.9965 43.595 29.4341 43.595 21.0406 43.7205C12.6471 43.846 11.8941 44.097 10.3576 44.3556" stroke="#E6A219" stroke-width="2" stroke-linecap="round"/>
<path d="M16.4426 32.9463C14.9289 32.9463 11.8941 33.4483 7.96543 35.346C3.17742 37.6589 1.48871 40.5449 1.10459 42.1878C-0.198367 47.7609 11.103 49.4214 14.1493 50.4368C14.9137 50.6916 15.6668 50.9426 16.4312 51.1974C17.1956 51.4523 17.9486 51.7033 18.7245 51.9619" stroke="#E6A219" stroke-width="2" stroke-linecap="round"/>
</svg>
