<svg width="274" height="67" viewBox="0 0 274 67" fill="none" xmlns="http://www.w3.org/2000/svg">
<path d="M1.16071 1.00022C0.516108 3.76556 1.79242 14.4853 5.33772 22.7845C6.26915 24.9649 10.1529 27.6222 16.4764 31.5897C22.3711 35.2882 26.9318 36.6659 34.1836 38.4773C40.1848 39.9762 50.7949 43.0539 58.6139 44.6944C70.9801 47.289 77.2106 46.5541 80.5271 45.3809C85.7062 43.5489 88.8199 40.1145 89.9995 37.9745C91.5169 35.2216 91.4047 32.5921 90.9793 30.8807C90.2887 28.1026 87.9754 26.1461 85.6226 24.6474C82.1582 22.4405 77.462 21.6274 73.3849 21.9465C70.4341 22.1774 67.7866 25.4757 64.7827 29.5463C61.8228 33.5574 61.7531 39.0058 63.0294 44.1497C65.9612 55.9658 76.9915 56.4229 87.1697 62.321C92.2935 65.2902 96.9741 65.6729 103.913 65.8889C117.867 66.3231 127.921 65.0348 130.809 64.1775C140.694 61.243 149.818 58.5888 158.089 56.7646C164.117 55.4348 174.468 55.7912 181.529 56.4326C184.954 56.7436 190.428 58.5759 206.907 61.1543C214.54 62.3485 226.319 61.5926 234.474 61.1672C242.628 60.7417 246.882 59.8909 249.925 59.2398C252.967 58.5888 254.669 58.1633 256.422 57.725" stroke="#E6A219" stroke-width="2" stroke-linecap="round"/>
<path d="M248.687 51.9236C250.183 52.5682 253.186 52.9937 257.905 53.7478C263.445 54.6334 267.78 54.9275 272.205 56.0007C272.736 56.1294 271.906 57.0675 271.258 57.5026C268.935 59.0629 265.679 59.8651 262.878 60.9448C262.23 61.1607 261.592 61.3735 260.838 61.5894C260.084 61.8053 259.233 62.0181 257.712 62.8818" stroke="#E6A219" stroke-width="2" stroke-linecap="round"/>
</svg>
