<svg width="62" height="68" viewBox="0 0 62 68" fill="none" xmlns="http://www.w3.org/2000/svg">
<path d="M22.2583 32.0526L34.3827 25.0526L49.3827 51.0334C50.4872 52.9465 49.8317 55.3929 47.9186 56.4975L42.7224 59.4975C40.8092 60.602 38.3629 59.9465 37.2583 58.0334L22.2583 32.0526Z" fill="#D9D9D9"/>
<path d="M32.3875 36.5968C41.7142 31.212 47.0364 22.9695 44.275 18.1866L38.775 8.66028L5 28.1603L10.5 37.6866C13.2614 42.4695 23.0608 41.9816 32.3875 36.5968Z" fill="#BFBFBF"/>
<ellipse cx="21.8875" cy="18.4103" rx="19.5" ry="10" transform="rotate(-30 21.8875 18.4103)" fill="#D9D9D9"/>
<g filter="url(#filter0_i_3_735)">
<path d="M19.3205 12.9641L27.4455 11.4486L30.1955 16.2117L24.8205 22.4904L16.6955 24.0059L13.9455 19.2428L19.3205 12.9641Z" fill="#BFBFBF"/>
</g>
<line x1="39.7014" y1="59.4284" x2="49.1798" y2="51.8223" stroke="white" stroke-linecap="round"/>
<line x1="36.3429" y1="55.5992" x2="46.6806" y2="47.4846" stroke="white" stroke-linecap="round"/>
<line x1="33.8429" y1="51.2692" x2="44.1806" y2="43.1546" stroke="white" stroke-linecap="round"/>
<line x1="28.8429" y1="42.6089" x2="39.1806" y2="34.4943" stroke="white" stroke-linecap="round"/>
<line x1="31.3429" y1="46.939" x2="41.6806" y2="38.8244" stroke="white" stroke-linecap="round"/>
<defs>
<filter id="filter0_i_3_735" x="13.9456" y="11.4486" width="16.25" height="13.1574" filterUnits="userSpaceOnUse" color-interpolation-filters="sRGB">
<feFlood flood-opacity="0" result="BackgroundImageFix"/>
<feBlend mode="normal" in="SourceGraphic" in2="BackgroundImageFix" result="shape"/>
<feColorMatrix in="SourceAlpha" type="matrix" values="0 0 0 0 0 0 0 0 0 0 0 0 0 0 0 0 0 0 127 0" result="hardAlpha"/>
<feOffset dy="2"/>
<feGaussianBlur stdDeviation="0.3"/>
<feComposite in2="hardAlpha" operator="arithmetic" k2="-1" k3="1"/>
<feColorMatrix type="matrix" values="0 0 0 0 0 0 0 0 0 0 0 0 0 0 0 0 0 0 0.25 0"/>
<feBlend mode="normal" in2="shape" result="effect1_innerShadow_3_735"/>
</filter>
</defs>
</svg>
